<?xml version="1.0" standalone="no"?>
<!DOCTYPE svg PUBLIC "-//W3C//DTD SVG 20010904//EN"
 "http://www.w3.org/TR/2001/REC-SVG-20010904/DTD/svg10.dtd">
<svg version="1.0" xmlns="http://www.w3.org/2000/svg"
 width="747.000000pt" height="747.000000pt" viewBox="0 0 747.000000 747.000000"
 preserveAspectRatio="xMidYMid meet">
<metadata>
Created by potrace 1.14, written by Peter Selinger 2001-2017
</metadata>
<g transform="translate(0.000000,747.000000) scale(0.100000,-0.100000)"
fill="#000000" stroke="none">
<path d="M3078 4845 c-2 -2 -26 -7 -54 -9 -67 -7 -95 -13 -199 -43 -49 -15
-93 -32 -97 -37 -4 -6 -10 -8 -13 -4 -9 9 -211 -95 -227 -117 -4 -5 -8 -6 -8
-2 0 5 -6 2 -14 -5 -34 -33 -66 -57 -66 -50 0 4 -5 -1 -11 -10 -8 -15 -34 -17
-252 -17 -133 0 -246 -1 -252 -2 -5 -1 -14 -1 -19 0 -4 1 -34 1 -65 1 -60 -1
-90 0 -133 4 -16 1 -28 -2 -28 -7 0 -4 -5 -5 -10 -2 -6 4 -71 6 -145 6 -180 0
-205 -14 -211 -115 -2 -43 24 -97 53 -105 10 -3 338 -8 728 -11 782 -6 744 -2
766 -68 23 -69 -4 -142 -59 -163 -12 -5 -546 -9 -1185 -10 -639 0 -1175 -3
-1192 -6 -64 -11 -96 -119 -54 -187 10 -17 19 -27 19 -23 0 5 10 1 22 -7 19
-14 158 -15 1182 -16 639 0 1175 -3 1191 -6 17 -2 36 -12 43 -21 6 -9 12 -13
12 -7 0 5 6 -3 14 -18 15 -29 17 -104 3 -125 -5 -7 -5 -13 -2 -13 3 0 0 -6 -7
-14 -7 -8 -16 -12 -20 -9 -5 2 -8 0 -8 -5 0 -19 -52 -22 -448 -22 -331 -1
-404 -3 -416 -15 -7 -8 -16 -11 -20 -8 -3 3 -13 -11 -22 -33 -30 -72 -5 -152
54 -175 12 -5 201 -9 419 -9 342 -1 400 -3 427 -17 41 -21 50 -38 52 -98 2
-74 -21 -109 -80 -121 -11 -2 -496 -4 -1077 -4 l-1056 0 -27 -25 c-33 -31 -45
-62 -44 -117 1 -64 27 -118 57 -118 6 0 11 -4 11 -10 0 -8 1248 -16 1771 -10
104 1 130 -2 143 -15 9 -9 16 -14 16 -10 0 3 13 -3 29 -14 15 -11 31 -18 35
-14 3 3 6 1 6 -5 0 -7 3 -11 8 -10 4 1 29 -8 56 -21 27 -12 57 -24 67 -26 11
-2 25 -7 32 -12 6 -4 17 -8 22 -9 6 -1 34 -9 63 -17 29 -9 54 -16 57 -17 3 0
6 0 8 -1 9 -3 50 -10 92 -16 77 -12 440 -6 440 7 0 1 11 3 25 4 14 2 35 6 47
10 13 4 35 9 49 12 15 3 39 11 54 19 15 8 30 12 33 9 3 -3 13 -1 24 4 10 5 29
14 43 20 106 45 126 55 142 69 10 9 18 13 18 8 0 -4 15 4 34 19 19 14 39 26
45 26 6 0 11 4 11 8 0 4 14 16 32 27 18 10 45 31 60 47 15 16 28 27 28 24 0
-4 70 67 103 104 39 44 100 134 136 201 86 159 120 305 116 494 -2 72 -6 141
-9 155 -3 14 -8 36 -11 49 -23 115 -118 311 -200 410 -62 75 -136 147 -204
198 -42 32 -79 63 -83 68 -5 7 -8 7 -8 0 0 -7 -3 -7 -8 0 -9 13 -37 30 -92 56
-25 12 -63 30 -84 40 -22 11 -48 19 -57 19 -10 0 -21 5 -24 10 -4 6 -11 8 -16
5 -5 -4 -9 -2 -9 2 0 5 -12 10 -26 11 -15 1 -32 6 -39 12 -6 5 -14 7 -18 4 -3
-3 -14 -1 -24 4 -16 9 -78 21 -129 26 -11 1 -24 5 -30 8 -11 6 -299 9 -306 3z
m154 -871 c47 -15 124 -86 113 -104 -3 -5 -1 -11 4 -14 5 -3 7 -28 6 -55 -6
-105 -86 -165 -232 -174 -7 0 -13 -6 -13 -14 0 -7 -4 -13 -9 -13 -4 0 -5 -17
-2 -37 9 -51 4 -142 -8 -156 -6 -8 -33 -11 -75 -9 l-66 4 0 287 c0 158 3 290
6 294 13 13 230 6 276 -9z m383 -174 c4 -6 10 -8 15 -5 5 3 16 -5 25 -17 15
-23 15 -23 21 -2 5 19 14 21 80 23 68 2 75 0 82 -20 5 -12 6 -40 2 -61 -4 -21
-4 -38 0 -38 4 0 4 -16 0 -35 -4 -19 -5 -35 -1 -35 5 0 5 -20 1 -45 -4 -25 -3
-45 2 -45 5 0 7 -4 3 -9 -3 -5 -6 -32 -6 -60 l-2 -51 -74 0 c-65 0 -75 2 -81
20 -8 20 -8 20 -31 -1 -17 -17 -38 -23 -78 -25 -48 -2 -57 1 -83 26 -17 16
-30 36 -30 45 0 8 -5 15 -11 15 -6 0 -9 6 -6 14 3 8 3 17 -1 20 -17 17 -18
119 -1 176 7 25 12 48 11 53 -1 4 6 7 15 7 9 0 14 3 10 6 -8 8 11 26 43 41 31
15 87 16 95 3z m431 -15 c9 -8 12 -15 8 -15 -3 0 -1 -6 5 -14 6 -8 11 -18 10
-22 -1 -5 0 -12 1 -16 1 -5 3 -11 5 -15 2 -8 20 -54 33 -86 6 -14 15 7 37 77
33 108 35 110 121 104 41 -2 49 -6 50 -23 0 -11 -5 -30 -13 -42 -7 -13 -11
-23 -9 -23 3 0 -3 -20 -14 -45 -11 -25 -19 -46 -19 -48 4 -8 -27 -93 -36 -99
-5 -4 -7 -8 -3 -8 4 0 0 -19 -8 -42 -9 -24 -17 -47 -18 -53 -1 -5 -4 -14 -7
-20 -3 -5 -14 -38 -24 -72 -10 -35 -22 -63 -27 -63 -4 0 -8 -7 -8 -15 0 -12
-13 -15 -57 -15 -84 0 -86 4 -57 85 30 85 28 77 22 95 -4 8 -21 58 -38 110
-18 52 -37 106 -43 120 -6 14 -11 28 -11 32 -1 3 -4 10 -8 14 -5 4 -8 18 -8
31 0 13 -4 23 -8 23 -4 0 -9 14 -10 30 l-2 30 61 0 c40 0 65 -5 75 -15z"/>
<path d="M3106 3863 c-6 -21 -6 -81 0 -105 6 -21 47 -18 73 6 25 22 21 84 -6
100 -32 18 -61 18 -67 -1z"/>
<path d="M3604 3682 c-20 -13 -32 -47 -29 -87 3 -55 12 -72 43 -80 36 -9 73
35 62 74 -4 14 -5 32 -3 39 3 7 -2 24 -11 37 -16 25 -41 32 -62 17z"/>
<path d="M618 4524 c-25 -13 -33 -25 -29 -46 0 -5 -4 -8 -10 -8 -16 0 -8 -81
10 -107 9 -12 22 -23 29 -23 6 0 12 -5 12 -10 0 -16 390 -12 411 3 32 24 50
65 48 106 -2 23 -7 41 -13 41 -5 0 -7 3 -3 6 7 8 -11 27 -40 42 -34 19 -380
15 -415 -4z"/>
<path d="M6546 3681 c1 -163 2 -302 3 -308 1 -9 22 -13 71 -13 l70 0 0 68 c2
209 6 226 53 216 37 -7 41 -22 43 -147 1 -67 2 -126 3 -130 0 -4 31 -7 68 -5
83 4 80 -5 73 203 -6 176 -12 192 -88 202 -42 6 -102 -11 -102 -29 0 -5 -4 -7
-9 -3 -5 3 -12 1 -16 -5 -18 -30 -25 1 -25 121 l0 130 -73 -2 -72 -2 1 -296z"/>
<path d="M4666 3953 c-3 -3 -16 -6 -28 -7 l-23 -1 -3 -292 -2 -293 129 0 c75
0 132 4 136 10 3 5 7 32 9 60 2 56 1 57 -79 62 l-40 3 -1 224 c-1 197 -3 225
-17 233 -11 6 -17 5 -17 -1 0 -6 -11 -6 -29 -1 -16 4 -32 6 -35 3z"/>
<path d="M6297 3869 c-14 -4 -27 -6 -29 -4 -2 2 -1 -18 0 -45 4 -44 2 -49 -24
-62 -25 -12 -27 -18 -27 -62 1 -45 16 -72 34 -60 17 10 21 -24 20 -147 l-1
-130 74 2 74 2 0 127 c-1 70 2 132 6 139 4 6 17 11 29 11 21 0 23 5 23 58 0
54 -2 58 -25 60 -32 3 -30 0 -33 58 l-3 49 -46 5 c-26 3 -58 3 -72 -1z"/>
<path d="M5489 3761 c-44 -15 -104 -63 -92 -74 3 -3 1 -12 -3 -19 -9 -15 -6
-70 5 -78 4 -3 10 -13 14 -22 3 -10 13 -18 22 -18 8 0 15 -5 15 -11 0 -5 5 -7
10 -4 6 3 10 1 10 -5 0 -6 6 -10 13 -9 17 3 61 -16 74 -33 14 -17 2 -41 -23
-44 -9 -1 -37 6 -63 16 -49 19 -53 18 -78 -28 -24 -42 -20 -48 50 -67 4 -2 9
-4 12 -5 3 -1 14 -4 25 -5 11 -1 23 -4 28 -5 31 -9 142 15 142 31 0 4 9 10 19
14 20 6 33 39 36 93 3 45 -32 85 -93 109 -26 10 -51 18 -55 18 -5 0 -15 8 -22
19 -12 16 -12 21 0 32 11 11 50 13 63 3 1 -1 6 -2 11 -3 5 0 13 -4 17 -8 15
-16 53 -8 59 12 3 11 11 20 16 20 5 0 9 11 9 25 0 20 -7 26 -42 36 -24 6 -59
13 -78 16 -19 2 -39 5 -45 7 -5 1 -31 -5 -56 -13z"/>
<path d="M5045 3755 c-86 -45 -123 -144 -99 -269 5 -28 25 -66 36 -66 4 0 8
-7 8 -15 0 -8 4 -15 9 -15 5 0 16 -7 24 -15 16 -15 75 -28 117 -25 14 1 33 3
43 3 9 1 17 5 17 10 0 5 7 7 15 3 17 -6 85 57 85 79 0 8 5 15 11 15 5 0 7 5 4
11 -4 6 -35 9 -73 8 -51 -2 -70 -7 -80 -20 -23 -32 -76 -9 -80 35 -2 32 10 35
123 35 113 -1 124 3 119 44 -4 31 -10 66 -14 77 -1 3 -2 8 -2 11 2 13 -70 89
-78 84 -5 -3 -11 -1 -15 5 -4 6 -11 8 -16 5 -5 -4 -9 -2 -9 3 0 16 -113 13
-145 -3z m99 -81 c22 -8 37 -39 30 -58 -4 -11 -19 -16 -51 -16 l-45 0 6 32 c8
42 27 55 60 42z"/>
<path d="M5883 3756 c-18 -8 -33 -12 -33 -8 0 4 -9 -6 -20 -23 -11 -16 -20
-25 -20 -20 -1 6 -10 -12 -21 -38 -29 -71 -27 -163 4 -224 17 -31 67 -82 67
-67 0 5 4 3 8 -4 12 -18 120 -26 170 -12 24 6 54 21 68 32 49 43 58 68 60 163
2 83 0 92 -26 130 -30 43 -57 68 -81 74 -47 12 -147 10 -176 -3z m113 -116 c9
0 13 -4 10 -9 -4 -5 -1 -11 5 -13 6 -2 11 -27 11 -57 -1 -57 -21 -91 -50 -86
-9 2 -22 4 -27 4 -17 1 -32 54 -28 100 4 45 26 75 51 66 8 -3 20 -5 28 -5z"/>
<path d="M7123 3755 c-18 -8 -33 -11 -33 -8 0 19 -62 -76 -70 -109 -22 -78 -3
-196 34 -220 6 -4 7 -8 1 -8 -5 0 7 -12 28 -26 24 -16 55 -26 85 -29 26 -2 52
-4 57 -5 6 -1 12 -1 15 0 6 2 28 8 55 14 11 2 22 5 25 6 3 1 9 2 13 1 5 -1 6
3 2 9 -3 5 -1 10 4 10 6 0 23 19 38 42 23 34 28 53 30 116 1 42 -1 81 -5 86
-3 6 -8 19 -9 29 -5 28 -52 75 -94 91 -48 20 -133 20 -176 1z m121 -125 c20
-20 27 -120 9 -127 -7 -3 -13 -11 -13 -18 0 -18 -44 -12 -65 9 -21 21 -26 117
-7 124 7 2 12 9 12 16 0 17 46 14 64 -4z"/>
<path d="M1345 3591 c-2 -2 -21 -3 -43 -3 -43 1 -93 -27 -100 -55 -16 -67 -12
-98 14 -128 l27 -30 190 -2 c188 -3 212 1 245 34 7 7 15 25 18 40 2 16 7 34 9
41 2 6 0 12 -6 12 -6 0 -9 8 -7 17 4 20 -36 63 -57 63 -8 0 -15 5 -15 11 0 5
-4 8 -8 5 -11 -7 -56 -8 -170 -4 -52 2 -95 1 -97 -1z"/>
</g>
</svg>
